<?xml version="1.0" encoding="UTF-8"?>
<svg xmlns="http://www.w3.org/2000/svg" xmlns:xlink="http://www.w3.org/1999/xlink" width="489.13pt" height="171.33pt" viewBox="0 0 489.13 171.33" version="1.1">
<defs>
<clipPath id="clip1">
  <path d="M 0 0.03125 L 489 0.03125 L 489 171.03125 L 0 171.03125 Z M 0 0.03125 "/>
</clipPath>
</defs>
<g id="surface1">
<g clip-path="url(#clip1)" clip-rule="nonzero">
<path style=" stroke:none;fill-rule:nonzero;fill:rgb(92.89856%,10.998535%,14.099121%);fill-opacity:1;" d="M 0 171.328125 L 489.132813 171.328125 L 489.132813 0.00390625 L 0 0.00390625 Z M 0 171.328125 "/>
</g>
<path style=" stroke:none;fill-rule:nonzero;fill:rgb(76.899719%,8.198547%,10.998535%);fill-opacity:1;" d="M 48.289063 49.015625 C 48.289063 49.015625 47.980469 49.582031 48.136719 49.890625 C 48.136719 49.890625 46.535156 52.316406 44.164063 51.59375 C 44.164063 51.59375 40.449219 56.90625 38.796875 56.441406 C 38.796875 56.441406 37.867188 58.660156 38.640625 59.382813 C 38.640625 59.382813 37.765625 60.210938 37.300781 60.363281 L 37.402344 60.777344 C 37.402344 60.777344 34.257813 62.582031 33.484375 65.214844 C 33.484375 65.214844 34.050781 67.898438 33.585938 68.101563 C 33.121094 68.308594 32.089844 68.359375 32.089844 68.515625 C 32.089844 68.671875 31.882813 70.734375 30.800781 71.300781 C 29.71875 71.867188 29.304688 73.261719 29.40625 73.414063 C 29.511719 73.570313 30.128906 73.933594 30.128906 74.085938 C 30.128906 74.242188 28.167969 78.421875 28.167969 78.78125 C 28.167969 79.144531 28.476563 81.515625 28.476563 81.515625 L 27.859375 82.960938 L 27.960938 84.457031 L 27.1875 84.917969 C 27.1875 84.917969 27.652344 85.902344 27.960938 86.054688 C 27.960938 86.054688 27.238281 86.726563 27.292969 87.035156 C 27.34375 87.34375 27.703125 89.253906 27.085938 88.789063 C 26.464844 88.324219 26.363281 88.789063 26.363281 88.789063 C 26.363281 88.789063 27.550781 91.265625 27.960938 91.574219 C 28.375 91.886719 28.21875 92.761719 28.21875 92.761719 L 27.136719 93.433594 L 27.550781 94.308594 C 27.550781 94.308594 26.878906 94.722656 26.929688 94.980469 C 26.980469 95.238281 26.621094 95.445313 27.394531 96.011719 C 27.394531 96.011719 25.949219 98.179688 26.003906 98.644531 C 26.054688 99.109375 26.15625 100.347656 26.15625 100.347656 C 26.15625 100.347656 26.207031 101.636719 26.207031 101.84375 C 26.207031 102.050781 26.980469 103.90625 26.929688 104.164063 C 26.878906 104.421875 26.878906 108.757813 26.878906 108.757813 C 26.878906 108.757813 28.632813 111.027344 29.148438 111.332031 C 29.664063 111.648438 29.511719 113.554688 29.511719 113.554688 C 29.511719 113.554688 29.355469 115 30.078125 115.515625 C 30.800781 116.03125 31.417969 116.339844 31.417969 116.546875 C 31.417969 116.75 30.902344 117.476563 31.058594 117.734375 C 31.214844 117.988281 32.246094 118.765625 32.296875 119.023438 C 32.347656 119.28125 31.832031 120.570313 31.882813 120.882813 C 31.933594 121.191406 32.195313 124.027344 32.914063 124.648438 C 33.636719 125.265625 35.339844 125.78125 35.289063 126.039063 C 35.238281 126.296875 34.359375 127.226563 34.617188 127.691406 C 34.875 128.152344 36.886719 131.25 37.300781 131.402344 C 37.714844 131.5625 39.414063 133.210938 39.414063 133.210938 C 39.414063 133.210938 42.253906 134.191406 42.460938 134.398438 C 42.664063 134.605469 46.792969 138.421875 47.414063 138.316406 L 45.347656 134.449219 C 45.347656 134.449219 48.445313 137.492188 48.136719 137.75 C 48.136719 137.75 48.394531 138.78125 49.734375 139.144531 C 51.074219 139.503906 53.449219 140.535156 53.550781 140.691406 C 53.65625 140.847656 54.585938 141.515625 54.996094 141.464844 C 55.410156 141.414063 57.730469 141.515625 57.730469 141.515625 C 57.730469 141.515625 59.332031 141.054688 59.792969 141.15625 C 60.257813 141.261719 63.199219 142.03125 63.199219 142.03125 C 63.199219 142.03125 63.871094 141.566406 64.078125 141.773438 C 64.078125 141.773438 66.035156 141.261719 67.121094 142.082031 C 68.203125 142.910156 68.257813 142.855469 68.617188 142.855469 C 68.976563 142.855469 69.441406 141.105469 70.113281 141.054688 C 70.785156 141 72.125 140.742188 72.589844 140.898438 C 73.054688 141.054688 74.703125 139.605469 74.960938 139.65625 C 75.21875 139.710938 77.230469 138.523438 77.644531 138.78125 C 78.058594 139.039063 79.96875 137.597656 80.484375 137.75 C 81 137.90625 81.515625 138.523438 81.980469 138.730469 C 82.445313 138.9375 82.597656 138.011719 83.269531 138.109375 C 83.9375 138.214844 84.972656 138.316406 85.074219 138.011719 C 85.175781 137.699219 85.28125 136.769531 85.695313 136.566406 C 86.105469 136.355469 86.054688 135.429688 86.261719 135.375 C 86.46875 135.324219 87.652344 135.582031 88.375 135.222656 C 89.097656 134.859375 89.460938 133.777344 89.871094 133.675781 C 90.285156 133.570313 90.542969 132.023438 91.058594 131.917969 C 91.574219 131.816406 93.328125 130.785156 93.378906 130.527344 C 93.433594 130.269531 94.207031 129.394531 93.691406 128.464844 C 93.691406 128.464844 94.824219 128.464844 95.03125 127.691406 C 95.238281 126.917969 95.855469 126.398438 96.164063 126.351563 C 96.476563 126.296875 97.199219 126.09375 98.179688 125.265625 C 99.160156 124.441406 100.140625 122.273438 100.5 121.910156 C 100.859375 121.550781 102.097656 119.28125 102.5625 119.179688 C 102.5625 119.179688 103.234375 119.539063 103.441406 119.386719 C 103.648438 119.230469 103.59375 117.113281 104.523438 117.425781 C 104.523438 117.425781 104.421875 115.617188 104.679688 115.308594 C 104.9375 115 105.710938 113.605469 105.710938 113.398438 C 105.710938 113.191406 106.949219 111.128906 107.308594 111.542969 C 107.671875 111.953125 107.980469 112.417969 107.980469 112.417969 C 107.980469 112.417969 108.136719 111.59375 108.394531 111.488281 C 108.652344 111.390625 109.785156 109.066406 110.046875 109.015625 C 110.304688 108.960938 110.871094 107.261719 111.023438 106.898438 C 111.179688 106.535156 111.386719 105.660156 111.386719 105.660156 L 111.695313 105.660156 C 111.695313 105.660156 111.335938 104.425781 111.851563 104.269531 C 112.367188 104.113281 113.964844 103.75 114.121094 103.390625 C 114.273438 103.03125 114.53125 97.199219 114.53125 96.785156 C 114.53125 96.375 115.875 95.910156 116.339844 95.652344 C 116.804688 95.394531 118.453125 93.125 118.246094 92.351563 C 118.039063 91.574219 118.09375 88.839844 118.765625 88.273438 L 118.503906 86.519531 C 118.503906 86.519531 118.609375 86.363281 118.765625 86.3125 C 118.917969 86.261719 119.125 86.984375 119.125 86.984375 C 119.125 86.984375 119.535156 84.40625 120.054688 84.046875 C 120.054688 84.046875 120.671875 83.582031 121.1875 83.582031 C 121.703125 83.582031 123.457031 82.238281 123.457031 82.238281 L 122.011719 79.867188 C 122.011719 79.867188 123.097656 78.679688 123.304688 78.628906 C 123.511719 78.574219 124.542969 78.730469 124.953125 77.648438 C 125.367188 76.5625 125.574219 75.066406 125.882813 74.914063 C 126.191406 74.757813 126.554688 74.242188 126.503906 74.035156 C 126.449219 73.828125 125.675781 73.3125 125.367188 73.570313 C 125.367188 73.570313 125.882813 69.238281 126.65625 67.949219 C 127.429688 66.65625 127.792969 65.265625 127.792969 64.902344 C 127.792969 64.542969 127.070313 63.976563 127.171875 63.71875 C 127.277344 63.460938 128.925781 61.085938 129.082031 60.621094 C 129.234375 60.15625 129.648438 59.230469 129.648438 59.230469 C 129.648438 59.230469 130.113281 58.351563 130.113281 58.195313 C 130.113281 58.042969 129.082031 56.960938 129.082031 56.804688 C 129.082031 56.648438 129.390625 56.238281 129.699219 56.082031 C 129.699219 56.082031 128.875 54.070313 128.980469 53.503906 C 129.082031 52.933594 129.289063 51.75 129.289063 51.75 C 129.289063 51.75 130.21875 51.230469 130.578125 50.71875 C 130.578125 50.71875 131.300781 48.292969 131.351563 47.414063 C 131.402344 46.535156 132.640625 44.628906 132.847656 43.75 C 133.054688 42.875 131.402344 40.5 131.507813 40.191406 C 131.609375 39.882813 131.609375 38.28125 131.609375 38.28125 C 131.609375 38.28125 132.28125 37.871094 132.539063 37.765625 C 132.796875 37.664063 132.023438 36.269531 132.484375 35.34375 C 132.949219 34.414063 133.105469 32.8125 133.15625 32.605469 C 133.210938 32.402344 132.691406 31.988281 132.433594 31.988281 C 132.175781 31.988281 132.589844 32.558594 132.332031 32.660156 C 132.074219 32.761719 131.09375 33.125 130.835938 33.074219 C 130.578125 33.019531 129.441406 32.503906 129.339844 32.246094 C 129.234375 31.988281 128.566406 31.886719 128.410156 32.246094 C 128.253906 32.605469 128.667969 35.445313 128.773438 35.601563 C 128.875 35.753906 129.183594 35.238281 129.441406 35.238281 C 129.699219 35.238281 129.804688 36.734375 129.492188 37.097656 C 129.183594 37.457031 128.203125 38.488281 127.894531 37.871094 C 127.894531 37.871094 127.378906 37.453125 126.914063 37.664063 C 126.726563 37.746094 125.675781 37.921875 126.039063 39.109375 C 126.398438 40.296875 127.429688 42.566406 127.6875 42.71875 C 127.945313 42.875 128.203125 43.234375 128.152344 43.441406 C 128.101563 43.648438 127.894531 44.269531 128.152344 44.523438 C 128.410156 44.785156 126.605469 44.578125 126.605469 44.371094 C 126.605469 44.164063 126.964844 43.855469 127.121094 43.957031 C 127.273438 44.0625 127.585938 43.699219 127.535156 43.441406 C 127.480469 43.183594 127.019531 43.183594 126.863281 43.390625 C 126.707031 43.597656 126.089844 43.855469 126.089844 43.855469 C 126.089844 43.855469 125.574219 42.824219 125.726563 42.769531 C 125.882813 42.71875 125.78125 41.53125 125.265625 41.53125 C 124.746094 41.53125 123.714844 41.738281 123.921875 42.566406 C 124.128906 43.390625 124.027344 45.660156 124.027344 45.96875 C 124.027344 46.28125 123.921875 47.722656 124.335938 47.929688 C 124.335938 47.929688 123.511719 47.570313 123.40625 47.261719 C 123.304688 46.949219 120.929688 48.445313 120.929688 48.445313 C 120.929688 48.445313 121.238281 49.632813 122.890625 49.890625 C 122.890625 49.890625 122.582031 51.335938 119.691406 51.386719 C 118.296875 51.410156 120.773438 53.195313 120.773438 53.195313 C 120.773438 53.195313 121.601563 53.761719 121.496094 54.019531 C 121.394531 54.277344 119.484375 54.894531 119.382813 55.050781 C 119.277344 55.203125 117.988281 56.546875 117.574219 56.699219 C 117.574219 56.699219 117.164063 56.289063 116.597656 56.597656 C 116.027344 56.90625 115.796875 57.230469 115.976563 57.628906 C 116.234375 58.195313 116.75 59.125 116.75 59.332031 C 116.75 59.332031 114.53125 64.957031 114.378906 65.316406 C 114.222656 65.679688 113.347656 65.886719 113.347656 66.191406 C 113.347656 66.503906 111.332031 66.347656 111.128906 66.191406 C 110.921875 66.039063 111.386719 68.722656 111.644531 69.136719 C 111.644531 69.136719 110.613281 71.765625 110.25 71.816406 C 110.25 71.816406 110.25 71.300781 110.042969 71.351563 C 109.835938 71.402344 109.476563 71.660156 109.371094 72.125 C 109.269531 72.589844 108.910156 72.953125 108.910156 72.953125 L 108.601563 72.4375 C 108.601563 72.4375 107.105469 73.828125 107.207031 74.292969 C 107.207031 74.292969 106.792969 74.65625 106.382813 74.964844 C 105.96875 75.273438 105.710938 75.738281 105.863281 76.152344 C 106.019531 76.5625 103.75 77.75 103.75 77.75 C 103.75 77.75 104.214844 78.78125 104.472656 79.144531 C 104.730469 79.503906 103.75 80.175781 103.59375 80.226563 C 103.441406 80.277344 103.542969 80.742188 103.132813 81 C 102.71875 81.257813 102.097656 82.394531 102.097656 82.394531 C 102.097656 82.394531 103.183594 83.21875 103.441406 83.425781 C 103.699219 83.632813 102.820313 83.941406 101.894531 84.304688 C 100.964844 84.664063 100.652344 86.3125 100.652344 86.3125 L 99.160156 89.511719 C 99.160156 89.511719 98.898438 89.046875 98.644531 89.046875 C 98.382813 89.046875 98.125 88.894531 98.125 89.097656 C 98.125 89.304688 98.28125 90.078125 98.023438 90.492188 C 97.765625 90.90625 96.628906 91.886719 95.445313 92.503906 C 94.257813 93.125 94.152344 95.238281 94.050781 95.496094 C 93.949219 95.753906 92.863281 97.820313 92.605469 97.820313 C 92.347656 97.820313 91.265625 97.609375 91.058594 97.972656 C 90.851563 98.335938 92.65625 99.519531 92.761719 99.519531 C 92.863281 99.519531 92.246094 99.882813 92.246094 99.882813 L 91.523438 99.46875 C 91.523438 99.46875 89.769531 99.777344 89.511719 99.726563 C 89.253906 99.675781 88.683594 99.933594 88.683594 100.292969 C 88.683594 100.65625 89.460938 101.328125 89.304688 101.636719 C 89.148438 101.945313 87.757813 103.339844 86.621094 103.078125 C 86.621094 103.078125 85.433594 105.351563 84.660156 105.972656 C 84.660156 105.972656 84.351563 109.429688 83.730469 109.894531 C 83.113281 110.355469 81.71875 111.75 81.257813 111.28125 C 81.257813 111.28125 80.378906 111.902344 79.914063 111.902344 C 79.914063 111.902344 79.964844 112.984375 79.707031 113.242188 C 79.449219 113.503906 77.847656 114.8125 76.40625 113.65625 C 75.632813 113.039063 75.066406 113.863281 75.066406 113.863281 C 75.066406 113.863281 74.363281 115.121094 73.222656 115.089844 C 73.222656 115.089844 73.253906 115.34375 73.128906 115.941406 C 73 116.546875 72.464844 117.527344 72.019531 117.464844 C 71.574219 117.402344 71.039063 117.8125 71.039063 117.8125 C 71.039063 117.8125 70.785156 118.351563 70.625 118.289063 C 70.46875 118.226563 70.46875 117.75 70.5 117.621094 C 70.53125 117.496094 69.074219 117.339844 68.820313 117.023438 C 68.566406 116.703125 68.089844 116.894531 68.058594 117.054688 C 68.027344 117.210938 68.152344 117.496094 67.648438 117.433594 C 67.140625 117.371094 66.886719 116.734375 66.886719 116.734375 C 66.886719 116.734375 66.285156 116.863281 66.253906 117.054688 C 66.222656 117.242188 65.652344 117.273438 65.617188 117.308594 C 65.585938 117.335938 65.207031 117.273438 65.207031 117.273438 C 65.207031 117.273438 64.761719 117.6875 64.699219 117.78125 C 64.636719 117.875 64.511719 118.101563 64.351563 117.941406 C 64.191406 117.78125 63.8125 117.875 63.75 118.035156 C 63.6875 118.195313 63.117188 118.128906 62.925781 118.101563 C 62.734375 118.066406 62.007813 118.574219 61.59375 118.574219 C 61.183594 118.574219 58.773438 117.75 58.394531 117.023438 C 58.394531 117.023438 56.652344 115.117188 56.269531 114.867188 C 55.890625 114.613281 53.417969 113.980469 53.039063 113.660156 C 52.660156 113.347656 51.992188 111.605469 51.835938 111.539063 C 51.675781 111.476563 51.421875 111.253906 51.613281 111.160156 C 51.804688 111.066406 52.183594 110.304688 52.089844 109.988281 C 51.992188 109.671875 52.945313 107.449219 53.132813 107.390625 C 53.324219 107.324219 53.167969 107.105469 53.167969 107.105469 C 53.167969 107.105469 52.753906 107.261719 52.660156 107.261719 C 52.5625 107.261719 52.660156 106.816406 52.660156 106.816406 C 52.660156 106.816406 52.183594 106.058594 52.089844 105.960938 C 51.992188 105.867188 51.457031 106.121094 51.167969 105.929688 C 50.886719 105.738281 50.058594 104.695313 50.03125 103.835938 C 49.996094 102.984375 50.15625 102.253906 50.757813 102 C 50.757813 102 49.140625 102.414063 48.792969 102.285156 C 48.445313 102.160156 48.890625 101.652344 49.015625 101.558594 C 49.140625 101.460938 50.410156 101.148438 50.410156 100.542969 C 50.410156 99.941406 48.824219 97.753906 48.824219 97.339844 C 48.824219 96.929688 49.523438 96.328125 49.648438 96.296875 L 49.617188 97.152344 C 49.617188 97.152344 50.886719 96.769531 50.886719 96.421875 C 50.886719 96.421875 49.394531 95.503906 49.207031 95.3125 C 49.015625 95.125 50.664063 94.457031 50.886719 94.394531 C 51.105469 94.332031 49.871094 93.03125 49.933594 92.304688 C 49.996094 91.574219 51.519531 90.65625 51.644531 90.625 C 51.773438 90.59375 51.328125 90.210938 51.328125 90.210938 L 51.929688 89.675781 C 51.929688 89.675781 50.726563 89.292969 50.566406 88.628906 C 50.410156 87.960938 49.648438 86.535156 49.617188 86.316406 C 49.585938 86.09375 49.839844 84.824219 49.996094 84.449219 C 49.996094 84.449219 49.679688 83.496094 49.585938 83.402344 C 49.488281 83.308594 52.089844 79.695313 52.4375 79.789063 C 52.785156 79.882813 52.976563 80.074219 52.976563 80.074219 C 52.976563 80.074219 52.40625 79.378906 51.960938 79.21875 C 51.519531 79.0625 50.980469 79.25 50.980469 79.25 C 50.980469 79.25 50.535156 77.160156 50.472656 77.066406 C 50.410156 76.96875 51.582031 76.238281 51.867188 75.957031 C 52.152344 75.667969 51.835938 75.445313 51.804688 75.320313 C 51.773438 75.195313 51.582031 73.261719 52.121094 72.976563 C 52.660156 72.691406 54.023438 72.660156 54.308594 72.4375 C 54.59375 72.214844 54.464844 71.835938 54.371094 71.707031 C 54.273438 71.582031 53.894531 70.820313 54.054688 70.757813 C 54.210938 70.695313 54.59375 70.410156 54.6875 70.3125 C 54.78125 70.21875 55.097656 70.125 55.132813 69.996094 C 55.164063 69.871094 55.289063 68.285156 55.414063 68.191406 C 55.542969 68.097656 55.542969 67.242188 55.574219 67.144531 C 55.605469 67.050781 56.96875 64.929688 56.84375 64.007813 C 56.714844 63.089844 54.8125 62.742188 54.78125 62.550781 C 54.75 62.359375 55.765625 60.871094 55.953125 60.808594 C 56.144531 60.746094 56.335938 60.109375 56.335938 60.109375 C 56.335938 60.109375 56.746094 59.320313 56.90625 59.320313 C 57.0625 59.320313 57.824219 58.78125 57.792969 58.558594 C 57.761719 58.335938 57.222656 56.214844 56.652344 56.371094 C 56.652344 56.371094 56.589844 55.992188 56.523438 55.929688 C 56.460938 55.863281 56.050781 55.453125 56.082031 55.105469 C 56.113281 54.757813 57.0625 54.058594 57.03125 53.742188 C 57 53.425781 56.082031 51.714844 54.6875 51.554688 C 54.6875 51.554688 54.054688 50.859375 54.148438 50.730469 C 54.242188 50.605469 54.433594 50.511719 54.433594 50.511719 C 54.433594 50.511719 54.210938 49.972656 53.546875 50.128906 C 53.546875 50.128906 52.214844 49.78125 51.898438 49.65625 C 51.582031 49.527344 51.421875 49.179688 51.167969 49.148438 C 50.914063 49.117188 48.515625 49.195313 48.289063 49.015625 "/>
<path style=" stroke:none;fill-rule:nonzero;fill:rgb(76.899719%,8.198547%,10.998535%);fill-opacity:1;" d="M 219.972656 86.359375 L 232.40625 86.351563 L 232.410156 89.949219 C 233 89.148438 238.214844 85.070313 244.417969 85.070313 C 247.941406 85.070313 250.101563 86.199219 252.09375 88.46875 C 254.082031 90.734375 255.078125 94.234375 255.078125 98.96875 L 255.078125 121.796875 L 242.878906 121.796875 L 242.878906 99.089844 C 242.878906 98.433594 242.082031 95.300781 239.078125 95.300781 C 235.921875 95.300781 232.089844 99.121094 232.089844 99.203125 L 232.089844 121.796875 L 219.96875 121.796875 L 219.972656 86.359375 "/>
<path style=" stroke:none;fill-rule:nonzero;fill:rgb(76.899719%,8.198547%,10.998535%);fill-opacity:1;" d="M 170.660156 97.03125 C 172.617188 96.234375 179.199219 94.390625 179.199219 85.136719 C 179.199219 75.324219 168.992188 72.96875 165 72.96875 L 141.027344 72.96875 L 141.027344 121.800781 L 163.152344 121.800781 C 164.09375 121.800781 179.367188 123.1875 179.367188 107.921875 C 179.367188 101.628906 173.648438 97.875 170.660156 97.03125 Z M 153.96875 82.105469 L 160.464844 82.105469 C 162.703125 82.105469 167.105469 82.871094 167.105469 87.492188 C 167.105469 92.226563 162.695313 92.585938 160.492188 92.585938 L 153.96875 92.585938 Z M 160.496094 112.476563 L 153.972656 112.476563 L 153.972656 101.992188 L 160.464844 101.992188 C 162.707031 101.992188 167.105469 102.761719 167.105469 107.386719 C 167.105469 112.117188 162.699219 112.476563 160.496094 112.476563 "/>
<path style=" stroke:none;fill-rule:nonzero;fill:rgb(76.899719%,8.198547%,10.998535%);fill-opacity:1;" d="M 324.664063 91.394531 C 321.140625 87.175781 315.9375 85.066406 309.046875 85.066406 C 303.015625 85.066406 298.234375 86.859375 294.691406 90.453125 C 291.148438 94.046875 289.375 98.609375 289.375 104.152344 C 289.375 110.105469 291.472656 114.914063 295.660156 118.585938 C 299.074219 121.550781 303.546875 123.03125 309.078125 123.03125 C 315.277344 123.03125 320.132813 121.246094 323.644531 117.683594 C 327.152344 114.113281 328.910156 109.535156 328.910156 103.945313 C 328.910156 98.976563 327.492188 94.792969 324.664063 91.394531 Z M 314.546875 111.527344 C 313.144531 113.109375 311.351563 113.898438 309.164063 113.898438 C 307.003906 113.898438 305.207031 113.101563 303.78125 111.496094 C 302.351563 109.890625 301.640625 107.410156 301.640625 104.0625 C 301.640625 100.757813 302.359375 98.296875 303.800781 96.679688 C 305.242188 95.066406 307.066406 94.257813 309.277344 94.257813 C 311.363281 94.257813 313.113281 95.050781 314.527344 96.644531 C 315.945313 98.238281 316.652344 100.660156 316.652344 103.917969 C 316.652344 107.410156 315.949219 109.949219 314.546875 111.527344 "/>
<path style=" stroke:none;fill-rule:nonzero;fill:rgb(76.899719%,8.198547%,10.998535%);fill-opacity:1;" d="M 462.402344 91.394531 C 458.878906 87.175781 453.671875 85.066406 446.78125 85.066406 C 440.753906 85.066406 435.96875 86.859375 432.425781 90.453125 C 428.882813 94.046875 427.113281 98.609375 427.113281 104.152344 C 427.113281 110.105469 429.207031 114.914063 433.398438 118.585938 C 436.8125 121.550781 441.28125 123.03125 446.8125 123.03125 C 453.015625 123.03125 457.867188 121.246094 461.378906 117.683594 C 464.890625 114.113281 466.644531 109.535156 466.644531 103.945313 C 466.644531 98.976563 465.230469 94.792969 462.402344 91.394531 Z M 452.285156 111.527344 C 450.878906 113.109375 449.085938 113.898438 446.902344 113.898438 C 444.742188 113.898438 442.945313 113.101563 441.515625 111.496094 C 440.089844 109.890625 439.375 107.410156 439.375 104.0625 C 439.375 100.757813 440.097656 98.296875 441.535156 96.679688 C 442.976563 95.066406 444.800781 94.257813 447.011719 94.257813 C 449.097656 94.257813 450.851563 95.050781 452.265625 96.644531 C 453.683594 98.238281 454.386719 100.660156 454.386719 103.917969 C 454.386719 107.410156 453.6875 109.949219 452.285156 111.527344 "/>
<path style=" stroke:none;fill-rule:nonzero;fill:rgb(76.899719%,8.198547%,10.998535%);fill-opacity:1;" d="M 388.8125 86.359375 L 401.242188 86.351563 L 401.246094 89.949219 C 401.839844 89.148438 407.050781 85.066406 413.253906 85.066406 C 416.777344 85.066406 418.9375 86.199219 420.929688 88.464844 C 422.921875 90.730469 423.917969 94.234375 423.917969 98.96875 L 423.917969 121.792969 L 411.71875 121.792969 L 411.71875 99.089844 C 411.71875 98.429688 410.921875 95.296875 407.914063 95.296875 C 404.761719 95.296875 400.925781 99.121094 400.925781 99.203125 L 400.925781 121.792969 L 388.808594 121.792969 L 388.8125 86.359375 "/>
<path style=" stroke:none;fill-rule:nonzero;fill:rgb(76.899719%,8.198547%,10.998535%);fill-opacity:1;" d="M 370.089844 72.957031 L 383.183594 72.957031 L 383.183594 102.285156 C 383.183594 108.375 384 123.03125 362.929688 123.03125 C 341.773438 123.03125 342.648438 107.886719 342.648438 102.285156 L 342.648438 72.957031 L 355.742188 72.957031 L 355.742188 102.960938 C 355.742188 107.238281 355.902344 113.304688 362.929688 113.304688 C 369.9375 113.304688 370.089844 107.28125 370.089844 102.960938 L 370.089844 72.957031 "/>
<path style=" stroke:none;fill-rule:nonzero;fill:rgb(76.899719%,8.198547%,10.998535%);fill-opacity:1;" d="M 289.710938 119.328125 C 286.417969 121.792969 282.191406 123.027344 277.035156 123.027344 C 271.503906 123.027344 267.035156 121.542969 263.621094 118.582031 C 259.429688 114.910156 257.335938 110.097656 257.335938 104.148438 C 257.335938 98.605469 259.105469 94.039063 262.648438 90.445313 C 266.191406 86.855469 270.976563 85.058594 277.003906 85.058594 C 282.195313 85.058594 286.429688 86.257813 289.707031 88.652344 L 285.535156 96.15625 C 283.832031 94.894531 281.785156 94.261719 279.402344 94.261719 C 276.5625 94.261719 274.21875 95.070313 272.375 96.683594 C 270.523438 98.300781 269.597656 100.761719 269.597656 104.066406 C 269.597656 107.414063 270.515625 109.894531 272.347656 111.496094 C 274.179688 113.101563 276.484375 113.902344 279.257813 113.902344 C 281.738281 113.902344 283.824219 113.285156 285.523438 112.054688 L 289.710938 119.328125 "/>
<path style=" stroke:none;fill-rule:nonzero;fill:rgb(76.899719%,8.198547%,10.998535%);fill-opacity:1;" d="M 216.765625 114.699219 C 216.765625 114.699219 213.5 116.761719 213.5 112.492188 L 213.5 96.40625 C 213.5 91.765625 213.574219 85.0625 201.167969 85.0625 C 191.730469 85.0625 184.207031 91.09375 184.207031 91.09375 L 188.296875 97.4375 C 189.863281 96.632813 200.109375 90.429688 202.300781 96.742188 L 202.300781 100.042969 L 201.09375 100.03125 C 194.125 100.03125 189.085938 101.230469 185.972656 103.621094 C 182.863281 106.015625 181.3125 109 181.3125 112.574219 C 181.3125 115.511719 182.347656 117.984375 184.421875 120.003906 C 186.496094 122.023438 189.253906 123.03125 192.699219 123.03125 C 198.804688 123.03125 200.808594 120.648438 202.304688 119.277344 L 203.085938 119.277344 C 203.085938 119.277344 203.796875 123.03125 208.902344 123.03125 C 214.195313 123.03125 218.351563 120.859375 218.355469 120.855469 Z M 202.296875 112.523438 C 201.339844 113.554688 200.386719 114.332031 199.441406 114.859375 C 198.492188 115.386719 197.558594 115.648438 196.640625 115.648438 C 195.613281 115.648438 194.71875 115.230469 193.957031 114.394531 C 193.195313 113.5625 192.816406 112.492188 192.816406 111.191406 C 192.816406 109.605469 193.445313 108.277344 194.699219 107.21875 C 195.957031 106.152344 197.871094 105.621094 200.4375 105.621094 L 202.296875 105.621094 L 202.296875 112.523438 "/>
<path style=" stroke:none;fill-rule:nonzero;fill:rgb(100%,100%,100%);fill-opacity:1;" d="M 44.777344 45.5 C 44.777344 45.5 44.464844 46.066406 44.621094 46.378906 C 44.621094 46.378906 43.019531 48.800781 40.648438 48.078125 C 40.648438 48.078125 36.933594 53.394531 35.28125 52.929688 C 35.28125 52.929688 34.355469 55.148438 35.128906 55.871094 C 35.128906 55.871094 34.25 56.695313 33.785156 56.851563 L 33.890625 57.261719 C 33.890625 57.261719 30.742188 59.070313 29.96875 61.699219 C 29.96875 61.699219 30.535156 64.382813 30.074219 64.589844 C 29.609375 64.796875 28.578125 64.847656 28.578125 65 C 28.578125 65.15625 28.367188 67.222656 27.285156 67.789063 C 26.203125 68.355469 25.789063 69.746094 25.894531 69.902344 C 25.996094 70.058594 26.613281 70.417969 26.613281 70.574219 C 26.613281 70.726563 24.65625 74.90625 24.65625 75.265625 C 24.65625 75.628906 24.964844 78.003906 24.964844 78.003906 L 24.34375 79.445313 L 24.449219 80.945313 L 23.675781 81.40625 C 23.675781 81.40625 24.140625 82.386719 24.449219 82.542969 C 24.449219 82.542969 23.726563 83.214844 23.777344 83.523438 C 23.828125 83.832031 24.191406 85.742188 23.570313 85.273438 C 22.953125 84.8125 22.847656 85.273438 22.847656 85.273438 C 22.847656 85.273438 24.035156 87.753906 24.449219 88.0625 C 24.859375 88.371094 24.707031 89.25 24.707031 89.25 L 23.621094 89.917969 L 24.035156 90.796875 C 24.035156 90.796875 23.367188 91.207031 23.417969 91.464844 C 23.46875 91.722656 23.105469 91.929688 23.878906 92.5 C 23.878906 92.5 22.4375 94.664063 22.488281 95.128906 C 22.539063 95.59375 22.644531 96.832031 22.644531 96.832031 C 22.644531 96.832031 22.695313 98.121094 22.695313 98.328125 C 22.695313 98.535156 23.46875 100.394531 23.417969 100.648438 C 23.367188 100.90625 23.367188 105.242188 23.367188 105.242188 C 23.367188 105.242188 25.117188 107.511719 25.636719 107.820313 C 26.152344 108.132813 25.996094 110.039063 25.996094 110.039063 C 25.996094 110.039063 25.84375 111.484375 26.5625 112 C 27.285156 112.519531 27.90625 112.824219 27.90625 113.03125 C 27.90625 113.238281 27.390625 113.960938 27.542969 114.21875 C 27.699219 114.476563 28.730469 115.25 28.78125 115.511719 C 28.835938 115.769531 28.316406 117.058594 28.371094 117.367188 C 28.421875 117.675781 28.679688 120.515625 29.402344 121.132813 C 30.125 121.75 31.824219 122.269531 31.773438 122.523438 C 31.722656 122.78125 30.84375 123.710938 31.101563 124.175781 C 31.363281 124.640625 33.375 127.734375 33.785156 127.890625 C 34.199219 128.042969 35.902344 129.695313 35.902344 129.695313 C 35.902344 129.695313 38.738281 130.675781 38.945313 130.882813 C 39.152344 131.089844 43.28125 134.90625 43.898438 134.804688 L 41.835938 130.933594 C 41.835938 130.933594 44.929688 133.980469 44.621094 134.234375 C 44.621094 134.234375 44.878906 135.269531 46.21875 135.628906 C 47.5625 135.988281 49.933594 137.023438 50.039063 137.175781 C 50.140625 137.332031 51.070313 138 51.484375 137.949219 C 51.894531 137.898438 54.21875 138 54.21875 138 C 54.21875 138 55.816406 137.539063 56.28125 137.644531 C 56.746094 137.742188 59.683594 138.519531 59.683594 138.519531 C 59.683594 138.519531 60.355469 138.054688 60.5625 138.261719 C 60.5625 138.261719 62.523438 137.742188 63.605469 138.570313 C 64.691406 139.398438 64.742188 139.34375 65.101563 139.34375 C 65.464844 139.34375 65.929688 137.589844 66.597656 137.539063 C 67.269531 137.484375 68.609375 137.230469 69.074219 137.386719 C 69.539063 137.539063 71.191406 136.09375 71.449219 136.144531 C 71.707031 136.195313 73.71875 135.011719 74.132813 135.269531 C 74.542969 135.523438 76.453125 134.082031 76.96875 134.234375 C 77.484375 134.390625 78 135.011719 78.464844 135.21875 C 78.929688 135.425781 79.085938 134.492188 79.753906 134.597656 C 80.425781 134.699219 81.457031 134.804688 81.558594 134.492188 C 81.664063 134.1875 81.765625 133.257813 82.179688 133.050781 C 82.59375 132.84375 82.539063 131.914063 82.746094 131.863281 C 82.953125 131.8125 84.140625 132.070313 84.863281 131.707031 C 85.585938 131.347656 85.945313 130.265625 86.359375 130.160156 C 86.769531 130.058594 87.027344 128.511719 87.542969 128.40625 C 88.0625 128.304688 89.816406 127.273438 89.867188 127.015625 C 89.917969 126.757813 90.691406 125.878906 90.175781 124.949219 C 90.175781 124.949219 91.308594 124.949219 91.519531 124.175781 C 91.722656 123.402344 92.34375 122.886719 92.652344 122.835938 C 92.960938 122.78125 93.683594 122.574219 94.664063 121.75 C 95.644531 120.929688 96.625 118.761719 96.984375 118.398438 C 97.347656 118.035156 98.585938 115.769531 99.050781 115.664063 C 99.050781 115.664063 99.71875 116.023438 99.925781 115.871094 C 100.132813 115.71875 100.082031 113.601563 101.011719 113.910156 C 101.011719 113.910156 100.90625 112.105469 101.164063 111.792969 C 101.421875 111.484375 102.195313 110.09375 102.195313 109.886719 C 102.195313 109.679688 103.433594 107.613281 103.796875 108.027344 C 104.15625 108.441406 104.464844 108.90625 104.464844 108.90625 C 104.464844 108.90625 104.621094 108.078125 104.878906 107.976563 C 105.136719 107.875 106.273438 105.554688 106.53125 105.5 C 106.789063 105.449219 107.355469 103.746094 107.511719 103.386719 C 107.664063 103.023438 107.871094 102.148438 107.871094 102.148438 L 108.179688 102.148438 C 108.179688 102.148438 107.820313 100.910156 108.335938 100.757813 C 108.851563 100.601563 110.453125 100.238281 110.605469 99.875 C 110.761719 99.515625 111.019531 93.683594 111.019531 93.273438 C 111.019531 92.859375 112.359375 92.394531 112.824219 92.136719 C 113.289063 91.878906 114.941406 89.609375 114.734375 88.835938 C 114.527344 88.0625 114.578125 85.328125 115.25 84.761719 L 114.992188 83.007813 C 114.992188 83.007813 115.09375 82.851563 115.25 82.800781 C 115.402344 82.75 115.609375 83.472656 115.609375 83.472656 C 115.609375 83.472656 116.023438 80.894531 116.539063 80.53125 C 116.539063 80.53125 117.15625 80.066406 117.675781 80.066406 C 118.191406 80.066406 119.945313 78.726563 119.945313 78.726563 L 118.5 76.351563 C 118.5 76.351563 119.582031 75.164063 119.789063 75.113281 C 119.996094 75.0625 121.027344 75.214844 121.441406 74.132813 C 121.851563 73.050781 122.058594 71.554688 122.367188 71.398438 C 122.679688 71.242188 123.039063 70.726563 122.988281 70.523438 C 122.9375 70.316406 122.164063 69.800781 121.851563 70.058594 C 121.851563 70.058594 122.367188 65.722656 123.144531 64.433594 C 123.917969 63.144531 124.277344 61.753906 124.277344 61.390625 C 124.277344 61.027344 123.554688 60.460938 123.660156 60.203125 C 123.761719 59.945313 125.414063 57.574219 125.566406 57.105469 C 125.722656 56.644531 126.136719 55.714844 126.136719 55.714844 C 126.136719 55.714844 126.597656 54.839844 126.597656 54.683594 C 126.597656 54.527344 125.566406 53.445313 125.566406 53.289063 C 125.566406 53.136719 125.878906 52.722656 126.1875 52.566406 C 126.1875 52.566406 125.359375 50.554688 125.464844 49.988281 C 125.566406 49.421875 125.773438 48.234375 125.773438 48.234375 C 125.773438 48.234375 126.703125 47.71875 127.0625 47.203125 C 127.0625 47.203125 127.785156 44.777344 127.835938 43.898438 C 127.890625 43.023438 129.128906 41.113281 129.335938 40.238281 C 129.539063 39.359375 127.890625 36.988281 127.992188 36.679688 C 128.09375 36.367188 128.09375 34.769531 128.09375 34.769531 C 128.09375 34.769531 128.765625 34.355469 129.023438 34.253906 C 129.28125 34.148438 128.507813 32.757813 128.972656 31.828125 C 129.4375 30.898438 129.589844 29.300781 129.644531 29.09375 C 129.695313 28.886719 129.179688 28.476563 128.921875 28.476563 C 128.664063 28.476563 129.074219 29.042969 128.816406 29.144531 C 128.558594 29.25 127.578125 29.609375 127.320313 29.558594 C 127.0625 29.507813 125.929688 28.992188 125.824219 28.734375 C 125.722656 28.476563 125.050781 28.371094 124.894531 28.734375 C 124.742188 29.09375 125.15625 31.933594 125.257813 32.085938 C 125.359375 32.242188 125.671875 31.726563 125.929688 31.726563 C 126.1875 31.726563 126.289063 33.222656 125.980469 33.582031 C 125.671875 33.945313 124.691406 34.976563 124.382813 34.355469 C 124.382813 34.355469 123.863281 33.941406 123.398438 34.148438 C 123.210938 34.234375 122.160156 34.40625 122.523438 35.59375 C 122.886719 36.78125 123.917969 39.050781 124.175781 39.207031 C 124.433594 39.359375 124.691406 39.722656 124.640625 39.929688 C 124.585938 40.132813 124.382813 40.753906 124.640625 41.011719 C 124.894531 41.269531 123.089844 41.0625 123.089844 40.855469 C 123.089844 40.652344 123.453125 40.339844 123.605469 40.445313 C 123.761719 40.546875 124.070313 40.1875 124.019531 39.929688 C 123.96875 39.671875 123.503906 39.671875 123.347656 39.875 C 123.195313 40.082031 122.574219 40.339844 122.574219 40.339844 C 122.574219 40.339844 122.058594 39.308594 122.214844 39.257813 C 122.367188 39.207031 122.265625 38.019531 121.75 38.019531 C 121.234375 38.019531 120.203125 38.226563 120.40625 39.050781 C 120.613281 39.875 120.511719 42.144531 120.511719 42.457031 C 120.511719 42.765625 120.40625 44.210938 120.820313 44.417969 C 120.820313 44.417969 119.996094 44.054688 119.890625 43.746094 C 119.789063 43.4375 117.417969 44.933594 117.417969 44.933594 C 117.417969 44.933594 117.726563 46.117188 119.375 46.378906 C 119.375 46.378906 119.066406 47.820313 116.179688 47.871094 C 114.785156 47.898438 117.261719 49.679688 117.261719 49.679688 C 117.261719 49.679688 118.085938 50.246094 117.984375 50.503906 C 117.878906 50.761719 115.972656 51.382813 115.867188 51.535156 C 115.765625 51.691406 114.476563 53.03125 114.0625 53.1875 C 114.0625 53.1875 113.648438 52.773438 113.082031 53.085938 C 112.515625 53.394531 112.28125 53.71875 112.464844 54.117188 C 112.722656 54.683594 113.238281 55.609375 113.238281 55.816406 C 113.238281 55.816406 111.019531 61.441406 110.863281 61.804688 C 110.710938 62.164063 109.832031 62.371094 109.832031 62.679688 C 109.832031 62.988281 107.820313 62.835938 107.613281 62.679688 C 107.40625 62.523438 107.871094 65.207031 108.128906 65.621094 C 108.128906 65.621094 107.097656 68.25 106.738281 68.304688 C 106.738281 68.304688 106.738281 67.789063 106.53125 67.839844 C 106.324219 67.890625 105.960938 68.148438 105.859375 68.613281 C 105.757813 69.078125 105.394531 69.4375 105.394531 69.4375 L 105.085938 68.921875 C 105.085938 68.921875 103.589844 70.3125 103.691406 70.777344 C 103.691406 70.777344 103.28125 71.140625 102.867188 71.449219 C 102.453125 71.757813 102.195313 72.222656 102.351563 72.636719 C 102.507813 73.046875 100.234375 74.234375 100.234375 74.234375 C 100.234375 74.234375 100.699219 75.265625 100.957031 75.628906 C 101.214844 75.992188 100.234375 76.660156 100.082031 76.710938 C 99.925781 76.765625 100.03125 77.230469 99.617188 77.488281 C 99.203125 77.746094 98.585938 78.878906 98.585938 78.878906 C 98.585938 78.878906 99.667969 79.707031 99.925781 79.910156 C 100.183594 80.117188 99.308594 80.429688 98.378906 80.789063 C 97.449219 81.148438 97.140625 82.800781 97.140625 82.800781 L 95.644531 85.996094 C 95.644531 85.996094 95.386719 85.535156 95.128906 85.535156 C 94.871094 85.535156 94.613281 85.378906 94.613281 85.585938 C 94.613281 85.792969 94.765625 86.566406 94.507813 86.976563 C 94.25 87.390625 93.117188 88.371094 91.929688 88.988281 C 90.742188 89.609375 90.640625 91.722656 90.535156 91.980469 C 90.433594 92.238281 89.351563 94.304688 89.09375 94.304688 C 88.835938 94.304688 87.75 94.097656 87.542969 94.457031 C 87.339844 94.820313 89.144531 96.007813 89.246094 96.007813 C 89.351563 96.007813 88.730469 96.367188 88.730469 96.367188 L 88.007813 95.957031 C 88.007813 95.957031 86.253906 96.265625 85.996094 96.214844 C 85.738281 96.160156 85.171875 96.417969 85.171875 96.78125 C 85.171875 97.140625 85.945313 97.8125 85.789063 98.121094 C 85.636719 98.429688 84.242188 99.824219 83.105469 99.566406 C 83.105469 99.566406 81.921875 101.835938 81.148438 102.457031 C 81.148438 102.457031 80.839844 105.910156 80.21875 106.378906 C 79.597656 106.84375 78.207031 108.234375 77.742188 107.769531 C 77.742188 107.769531 76.863281 108.390625 76.402344 108.390625 C 76.402344 108.390625 76.453125 109.472656 76.195313 109.730469 C 75.9375 109.988281 74.335938 111.300781 72.894531 110.144531 C 72.117188 109.523438 71.550781 110.351563 71.550781 110.351563 C 71.550781 110.351563 70.851563 111.605469 69.710938 111.574219 C 69.710938 111.574219 69.742188 111.828125 69.613281 112.429688 C 69.488281 113.03125 68.949219 114.015625 68.503906 113.949219 C 68.0625 113.890625 67.523438 114.300781 67.523438 114.300781 C 67.523438 114.300781 67.269531 114.835938 67.109375 114.773438 C 66.953125 114.710938 66.953125 114.234375 66.984375 114.109375 C 67.015625 113.980469 65.558594 113.824219 65.304688 113.507813 C 65.050781 113.191406 64.578125 113.382813 64.542969 113.539063 C 64.511719 113.699219 64.640625 113.980469 64.132813 113.917969 C 63.625 113.855469 63.371094 113.222656 63.371094 113.222656 C 63.371094 113.222656 62.769531 113.351563 62.738281 113.539063 C 62.707031 113.730469 62.136719 113.761719 62.105469 113.792969 C 62.074219 113.824219 61.691406 113.761719 61.691406 113.761719 C 61.691406 113.761719 61.25 114.175781 61.1875 114.269531 C 61.121094 114.363281 60.996094 114.585938 60.835938 114.425781 C 60.679688 114.269531 60.300781 114.363281 60.234375 114.523438 C 60.171875 114.683594 59.601563 114.613281 59.410156 114.585938 C 59.222656 114.554688 58.492188 115.0625 58.082031 115.0625 C 57.667969 115.0625 55.261719 114.234375 54.878906 113.507813 C 54.878906 113.507813 53.136719 111.605469 52.757813 111.355469 C 52.378906 111.101563 49.90625 110.464844 49.527344 110.148438 C 49.144531 109.832031 48.480469 108.089844 48.320313 108.023438 C 48.164063 107.960938 47.910156 107.738281 48.097656 107.648438 C 48.289063 107.550781 48.667969 106.789063 48.574219 106.472656 C 48.480469 106.15625 49.429688 103.9375 49.621094 103.875 C 49.808594 103.8125 49.652344 103.589844 49.652344 103.589844 C 49.652344 103.589844 49.238281 103.746094 49.144531 103.746094 C 49.050781 103.746094 49.144531 103.304688 49.144531 103.304688 C 49.144531 103.304688 48.667969 102.542969 48.574219 102.445313 C 48.480469 102.355469 47.941406 102.605469 47.65625 102.414063 C 47.371094 102.226563 46.546875 101.183594 46.515625 100.324219 C 46.484375 99.46875 46.640625 98.738281 47.242188 98.488281 C 47.242188 98.488281 45.628906 98.898438 45.28125 98.773438 C 44.929688 98.644531 45.375 98.136719 45.5 98.042969 C 45.628906 97.945313 46.894531 97.628906 46.894531 97.027344 C 46.894531 96.425781 45.3125 94.238281 45.3125 93.828125 C 45.3125 93.417969 46.007813 92.816406 46.136719 92.78125 L 46.101563 93.636719 C 46.101563 93.636719 47.371094 93.257813 47.371094 92.910156 C 47.371094 92.910156 45.882813 91.988281 45.691406 91.800781 C 45.5 91.609375 47.148438 90.945313 47.371094 90.882813 C 47.59375 90.820313 46.355469 89.519531 46.417969 88.789063 C 46.484375 88.0625 48.003906 87.140625 48.132813 87.109375 C 48.257813 87.078125 47.816406 86.699219 47.816406 86.699219 L 48.417969 86.160156 C 48.417969 86.160156 47.210938 85.777344 47.054688 85.113281 C 46.894531 84.449219 46.136719 83.023438 46.101563 82.800781 C 46.070313 82.582031 46.324219 81.3125 46.484375 80.933594 C 46.484375 80.933594 46.167969 79.984375 46.070313 79.886719 C 45.976563 79.792969 48.574219 76.179688 48.921875 76.277344 C 49.273438 76.371094 49.460938 76.558594 49.460938 76.558594 C 49.460938 76.558594 48.890625 75.863281 48.449219 75.703125 C 48.003906 75.546875 47.464844 75.734375 47.464844 75.734375 C 47.464844 75.734375 47.023438 73.644531 46.960938 73.550781 C 46.894531 73.453125 48.066406 72.726563 48.351563 72.441406 C 48.636719 72.15625 48.320313 71.933594 48.289063 71.804688 C 48.257813 71.679688 48.066406 69.746094 48.605469 69.460938 C 49.144531 69.179688 50.507813 69.144531 50.792969 68.921875 C 51.078125 68.699219 50.953125 68.320313 50.855469 68.195313 C 50.761719 68.066406 50.378906 67.308594 50.539063 67.242188 C 50.699219 67.183594 51.078125 66.894531 51.171875 66.800781 C 51.269531 66.703125 51.585938 66.609375 51.617188 66.484375 C 51.648438 66.355469 51.777344 64.773438 51.902344 64.675781 C 52.027344 64.582031 52.027344 63.726563 52.058594 63.632813 C 52.09375 63.535156 53.453125 61.414063 53.328125 60.492188 C 53.203125 59.574219 51.300781 59.226563 51.269531 59.035156 C 51.234375 58.847656 52.25 57.359375 52.441406 57.296875 C 52.628906 57.230469 52.820313 56.597656 52.820313 56.597656 C 52.820313 56.597656 53.230469 55.804688 53.390625 55.804688 C 53.550781 55.804688 54.308594 55.265625 54.277344 55.046875 C 54.246094 54.824219 53.707031 52.699219 53.136719 52.859375 C 53.136719 52.859375 53.074219 52.476563 53.011719 52.414063 C 52.949219 52.351563 52.535156 51.9375 52.566406 51.589844 C 52.597656 51.242188 53.550781 50.546875 53.519531 50.226563 C 53.484375 49.910156 52.566406 48.199219 51.171875 48.042969 C 51.171875 48.042969 50.539063 47.34375 50.632813 47.21875 C 50.730469 47.089844 50.917969 46.996094 50.917969 46.996094 C 50.917969 46.996094 50.699219 46.457031 50.03125 46.617188 C 50.03125 46.617188 48.703125 46.265625 48.386719 46.140625 C 48.066406 46.015625 47.910156 45.664063 47.65625 45.632813 C 47.402344 45.601563 45 45.683594 44.777344 45.5 "/>
<path style=" stroke:none;fill-rule:nonzero;fill:rgb(100%,100%,100%);fill-opacity:1;" d="M 216.460938 82.847656 L 228.890625 82.839844 L 228.894531 86.4375 C 229.488281 85.632813 234.699219 81.554688 240.902344 81.554688 C 244.425781 81.554688 246.585938 82.6875 248.578125 84.953125 C 250.566406 87.21875 251.566406 90.71875 251.566406 95.453125 L 251.566406 118.28125 L 239.367188 118.28125 L 239.367188 95.578125 C 239.367188 94.917969 238.570313 91.785156 235.5625 91.785156 C 232.410156 91.785156 228.574219 95.609375 228.574219 95.6875 L 228.574219 118.28125 L 216.457031 118.28125 L 216.460938 82.847656 "/>
<path style=" stroke:none;fill-rule:nonzero;fill:rgb(100%,100%,100%);fill-opacity:1;" d="M 167.144531 93.519531 C 169.101563 92.71875 175.683594 90.878906 175.683594 81.625 C 175.683594 71.8125 165.480469 69.457031 161.484375 69.457031 L 137.515625 69.457031 L 137.515625 118.285156 L 159.640625 118.285156 C 160.582031 118.285156 175.851563 119.675781 175.851563 104.40625 C 175.851563 98.113281 170.132813 94.363281 167.144531 93.519531 Z M 150.457031 78.589844 L 156.949219 78.589844 C 159.191406 78.589844 163.589844 79.355469 163.589844 83.980469 C 163.589844 88.714844 159.183594 89.070313 156.980469 89.070313 L 150.457031 89.070313 Z M 156.980469 108.960938 L 150.457031 108.960938 L 150.457031 98.480469 L 156.953125 98.480469 C 159.191406 98.480469 163.59375 99.246094 163.59375 103.871094 C 163.59375 108.605469 159.183594 108.960938 156.980469 108.960938 "/>
<path style=" stroke:none;fill-rule:nonzero;fill:rgb(100%,100%,100%);fill-opacity:1;" d="M 321.148438 87.878906 C 317.628906 83.664063 312.421875 81.554688 305.53125 81.554688 C 299.503906 81.554688 294.71875 83.347656 291.175781 86.9375 C 287.632813 90.53125 285.863281 95.097656 285.863281 100.640625 C 285.863281 106.589844 287.957031 111.402344 292.148438 115.070313 C 295.5625 118.035156 300.03125 119.519531 305.5625 119.519531 C 311.765625 119.519531 316.617188 117.734375 320.128906 114.167969 C 323.640625 110.601563 325.394531 106.023438 325.394531 100.433594 C 325.394531 95.460938 323.980469 91.277344 321.148438 87.878906 Z M 311.035156 108.015625 C 309.632813 109.597656 307.835938 110.386719 305.652344 110.386719 C 303.492188 110.386719 301.695313 109.582031 300.265625 107.980469 C 298.839844 106.375 298.125 103.898438 298.125 100.546875 C 298.125 97.242188 298.847656 94.78125 300.289063 93.167969 C 301.726563 91.550781 303.550781 90.742188 305.761719 90.742188 C 307.847656 90.742188 309.597656 91.539063 311.015625 93.132813 C 312.433594 94.722656 313.136719 97.148438 313.136719 100.402344 C 313.136719 103.898438 312.4375 106.4375 311.035156 108.015625 "/>
<path style=" stroke:none;fill-rule:nonzero;fill:rgb(100%,100%,100%);fill-opacity:1;" d="M 458.886719 87.878906 C 455.363281 83.664063 450.15625 81.554688 443.265625 81.554688 C 437.238281 81.554688 432.453125 83.347656 428.914063 86.9375 C 425.367188 90.53125 423.597656 95.097656 423.597656 100.640625 C 423.597656 106.589844 425.691406 111.402344 429.882813 115.070313 C 433.296875 118.035156 437.769531 119.519531 443.300781 119.519531 C 449.5 119.519531 454.355469 117.734375 457.867188 114.167969 C 461.375 110.601563 463.132813 106.023438 463.132813 100.433594 C 463.132813 95.460938 461.714844 91.277344 458.886719 87.878906 Z M 448.769531 108.015625 C 447.367188 109.597656 445.570313 110.386719 443.386719 110.386719 C 441.226563 110.386719 439.429688 109.582031 438 107.980469 C 436.574219 106.375 435.863281 103.898438 435.863281 100.546875 C 435.863281 97.242188 436.582031 94.78125 438.023438 93.167969 C 439.460938 91.550781 441.285156 90.742188 443.5 90.742188 C 445.582031 90.742188 447.335938 91.539063 448.75 93.132813 C 450.167969 94.722656 450.875 97.148438 450.875 100.402344 C 450.875 103.898438 450.171875 106.4375 448.769531 108.015625 "/>
<path style=" stroke:none;fill-rule:nonzero;fill:rgb(100%,100%,100%);fill-opacity:1;" d="M 385.296875 82.847656 L 397.730469 82.839844 L 397.730469 86.4375 C 398.324219 85.632813 403.539063 81.554688 409.742188 81.554688 C 413.265625 81.554688 415.425781 82.6875 417.417969 84.953125 C 419.40625 87.21875 420.402344 90.71875 420.402344 95.453125 L 420.402344 118.28125 L 408.203125 118.28125 L 408.203125 95.578125 C 408.203125 94.917969 407.40625 91.785156 404.402344 91.785156 C 401.246094 91.785156 397.414063 95.609375 397.414063 95.6875 L 397.414063 118.28125 L 385.292969 118.28125 L 385.296875 82.847656 "/>
<path style=" stroke:none;fill-rule:nonzero;fill:rgb(100%,100%,100%);fill-opacity:1;" d="M 366.578125 69.445313 L 379.671875 69.445313 L 379.671875 98.769531 C 379.671875 104.863281 380.484375 119.519531 359.417969 119.519531 C 338.257813 119.519531 339.132813 104.371094 339.132813 98.769531 L 339.132813 69.445313 L 352.226563 69.445313 L 352.226563 99.449219 C 352.226563 103.726563 352.386719 109.789063 359.417969 109.789063 C 366.425781 109.789063 366.578125 103.769531 366.578125 99.449219 L 366.578125 69.445313 "/>
<path style=" stroke:none;fill-rule:nonzero;fill:rgb(100%,100%,100%);fill-opacity:1;" d="M 286.199219 115.8125 C 282.902344 118.277344 278.675781 119.515625 273.523438 119.515625 C 267.992188 119.515625 263.519531 118.03125 260.105469 115.066406 C 255.914063 111.394531 253.820313 106.582031 253.820313 100.636719 C 253.820313 95.089844 255.59375 90.523438 259.132813 86.933594 C 262.675781 83.34375 267.460938 81.546875 273.492188 81.546875 C 278.679688 81.546875 282.914063 82.746094 286.195313 85.136719 L 282.019531 92.644531 C 280.316406 91.378906 278.273438 90.746094 275.886719 90.746094 C 273.050781 90.746094 270.707031 91.554688 268.859375 93.171875 C 267.011719 94.785156 266.085938 97.246094 266.085938 100.550781 C 266.085938 103.902344 267 106.378906 268.832031 107.984375 C 270.664063 109.585938 272.972656 110.390625 275.746094 110.390625 C 278.222656 110.390625 280.3125 109.773438 282.007813 108.535156 L 286.199219 115.8125 "/>
<path style=" stroke:none;fill-rule:nonzero;fill:rgb(100%,100%,100%);fill-opacity:1;" d="M 213.253906 111.1875 C 213.253906 111.1875 209.988281 113.242188 209.988281 108.980469 L 209.988281 92.890625 C 209.988281 88.253906 210.0625 81.550781 197.65625 81.550781 C 188.21875 81.550781 180.695313 87.582031 180.691406 87.582031 L 184.785156 93.921875 C 186.351563 93.121094 196.597656 86.914063 198.785156 93.226563 L 198.785156 96.527344 L 197.582031 96.515625 C 190.609375 96.515625 185.570313 97.714844 182.460938 100.109375 C 179.351563 102.5 177.796875 105.484375 177.796875 109.0625 C 177.796875 111.992188 178.832031 114.472656 180.90625 116.488281 C 182.980469 118.507813 185.738281 119.519531 189.183594 119.519531 C 195.292969 119.519531 197.292969 117.132813 198.792969 115.765625 L 199.574219 115.765625 C 199.570313 115.765625 200.28125 119.519531 205.386719 119.519531 C 210.679688 119.519531 214.835938 117.347656 214.839844 117.34375 Z M 198.78125 109.007813 C 197.824219 110.039063 196.875 110.820313 195.925781 111.34375 C 194.980469 111.871094 194.046875 112.132813 193.125 112.132813 C 192.097656 112.132813 191.203125 111.71875 190.441406 110.882813 C 189.679688 110.042969 189.300781 108.976563 189.300781 107.679688 C 189.300781 106.089844 189.929688 104.765625 191.1875 103.699219 C 192.445313 102.640625 194.355469 102.105469 196.921875 102.105469 L 198.78125 102.105469 L 198.78125 109.007813 "/>
</g>
</svg>
